<svg width="49" height="48" viewBox="0 0 49 48" fill="none" xmlns="http://www.w3.org/2000/svg">
<rect x="0.5" width="48" height="48" rx="24" fill="black"/>
<path fill-rule="evenodd" clip-rule="evenodd" d="M25.517 18.2554C26.6441 18.2554 27.1081 17.8089 27.1081 16.7513C27.1081 15.6467 26.622 15.2002 25.517 15.2002C24.412 15.2002 23.9258 15.6467 23.9258 16.7513C23.9258 17.8089 24.3899 18.2554 25.517 18.2554ZM23.9696 30.4735L23.7707 30.3325L26.4005 20.5087H21.0745L20.5 22.6943L23.5939 22.6709L21.5828 30.168C21.2293 31.531 22.0912 32.8002 23.5055 32.8002C23.9475 32.8002 24.3894 32.6826 24.8756 32.3537L28.5 29.745L27.395 28.0058L23.9696 30.4735Z" fill="white"/>
</svg>
