<svg width="48" height="49" viewBox="0 0 48 49" fill="none" xmlns="http://www.w3.org/2000/svg">
<rect y="0.615356" width="48" height="48" rx="24" fill="black"/>
<path fill-rule="evenodd" clip-rule="evenodd" d="M25.3674 15.6154H22.6326C22.5182 15.6154 22.4272 15.7111 22.4329 15.8253L23.0439 28.0464C23.0492 28.1528 23.1371 28.2364 23.2437 28.2364H24.7563C24.8629 28.2364 24.9507 28.1528 24.9561 28.0464L25.5671 15.8253C25.5728 15.7111 25.4818 15.6154 25.3674 15.6154ZM25.5779 32.1323C25.5779 33.1751 25.1178 33.6154 24.0001 33.6154C22.8826 33.6154 22.4224 33.1751 22.4224 32.1323C22.4224 31.0431 22.9045 30.6029 24.0001 30.6029C25.0959 30.6029 25.5779 31.0431 25.5779 32.1323Z" fill="white"/>
</svg>
