<svg width="48" height="49" viewBox="0 0 48 49" fill="none" xmlns="http://www.w3.org/2000/svg">
<rect y="0.615356" width="48" height="48" rx="24" fill="black"/>
<path fill-rule="evenodd" clip-rule="evenodd" d="M25.017 18.8706C26.1441 18.8706 26.6081 18.4241 26.6081 17.3665C26.6081 16.2619 26.122 15.8154 25.017 15.8154C23.912 15.8154 23.4258 16.2619 23.4258 17.3665C23.4258 18.4241 23.8899 18.8706 25.017 18.8706ZM23.4696 31.0887L23.2707 30.9477L25.9005 21.1239H20.5745L20 23.3095L23.0939 23.286L21.0828 30.7831C20.7293 32.1462 21.5912 33.4154 23.0055 33.4154C23.4475 33.4154 23.8894 33.2978 24.3756 32.9689L28 30.3602L26.895 28.621L23.4696 31.0887Z" fill="white"/>
</svg>
