<svg width="24" height="24" viewBox="0 0 24 24" fill="none" xmlns="http://www.w3.org/2000/svg">
<g opacity="0.3">
<path fill-rule="evenodd" clip-rule="evenodd" d="M15.0644 15.067L15.4427 14.6252C16.2284 13.6118 16.6971 12.3334 16.6971 10.9439C16.6971 7.65341 14.0689 4.98597 10.8269 4.98597C7.58489 4.98597 4.95673 7.65341 4.95673 10.9439C4.95673 14.2343 7.58489 16.9018 10.8269 16.9018C12.4924 16.9018 13.996 16.1978 15.0644 15.067ZM17.4066 15.2478L21 18.4181L19.6452 20L16.0679 16.8439C14.6805 18.1143 12.8427 18.8877 10.8269 18.8877C6.50422 18.8877 3 15.3311 3 10.9439C3 6.55659 6.50422 3 10.8269 3C15.1496 3 18.6538 6.55659 18.6538 10.9439C18.6538 12.53 18.1958 14.0076 17.4066 15.2478Z" fill="black"/>
</g>
</svg>
