<svg width="49" height="48" viewBox="0 0 49 48" fill="none" xmlns="http://www.w3.org/2000/svg">
<rect x="0.5" width="48" height="48" rx="24" fill="black"/>
<path fill-rule="evenodd" clip-rule="evenodd" d="M26.9392 14.4774C25.9315 12.5797 23.2737 12.5196 22.1628 14.2987L22.0602 14.4774L13.3327 30.914C12.3549 32.756 13.6808 34.99 15.7722 34.9901H33.2272C35.2533 34.9901 36.5618 32.8936 35.7526 31.0878L35.6677 30.914L26.9392 14.4774ZM23.4841 15.0224C24.0187 14.2871 25.1685 14.3398 25.6149 15.1806L34.3425 31.6171L34.4147 31.7792C34.7162 32.594 34.1171 33.4901 33.2272 33.4901H15.7722C14.823 33.49 14.2051 32.4699 14.6579 31.6171L23.3854 15.1806L23.4841 15.0224ZM23.7067 20.5853H25.2934C25.4091 20.5853 25.5006 20.6831 25.4929 20.7985L25.1167 26.4675C25.1097 26.5726 25.0224 26.6542 24.9171 26.6542H24.083C23.9777 26.6542 23.8904 26.5726 23.8834 26.4675L23.5072 20.7985C23.4995 20.6831 23.5911 20.5853 23.7067 20.5853ZM24.5002 30.103C25.2136 30.103 25.5073 29.8207 25.5073 29.1521C25.5073 28.4538 25.1996 28.1715 24.5002 28.1715C23.8008 28.1715 23.493 28.4538 23.493 29.1521C23.493 29.8207 23.7868 30.103 24.5002 30.103Z" fill="white"/>
</svg>
